<?xml version="1.0" encoding="UTF-8" standalone="no"?>
<!-- Created with Inkscape (http://www.inkscape.org/) -->

<svg
   version="1.1"
   id="svg1"
   width="561.74664"
   height="118.44"
   viewBox="0 0 561.74664 118.44"
   sodipodi:docname="Flex-Trim-Logo.eps"
   xmlns:inkscape="http://www.inkscape.org/namespaces/inkscape"
   xmlns:sodipodi="http://sodipodi.sourceforge.net/DTD/sodipodi-0.dtd"
   xmlns="http://www.w3.org/2000/svg"
   xmlns:svg="http://www.w3.org/2000/svg">
  <defs
     id="defs1">
    <linearGradient
       x1="0"
       y1="0"
       x2="1"
       y2="0"
       gradientUnits="userSpaceOnUse"
       gradientTransform="matrix(3480,-66.6602,-66.6602,-3480,126.006,240.898)"
       spreadMethod="pad"
       id="linearGradient6">
      <stop
         style="stop-opacity:1;stop-color:#9c6a37"
         offset="0"
         id="stop2" />
      <stop
         style="stop-opacity:1;stop-color:#9c6a37"
         offset="0.00613497"
         id="stop3" />
      <stop
         style="stop-opacity:1;stop-color:#ffffff"
         offset="0.331288"
         id="stop4" />
      <stop
         style="stop-opacity:1;stop-color:#b39538"
         offset="0.588957"
         id="stop5" />
      <stop
         style="stop-opacity:1;stop-color:#776e39"
         offset="1"
         id="stop6" />
    </linearGradient>
    <clipPath
       clipPathUnits="userSpaceOnUse"
       id="clipPath6">
      <path
         d="M 52.7344,189.91 8.89063,28.293 29.9648,5.80078 c 0,0 201.9262,104.10922 314.2232,143.01522 112.3,38.899 307.339,88.188 506.187,110.657 198.845,22.468 364.875,13.711 571.925,0.554 207.05,-13.14 584.45,-57.547 678.69,-72.871 94.22,-15.332 414.15,-79.441 446.47,-87.6443 32.32,-8.2109 326.46,-67.3828 533,-73.3984 206.55,-6.0235 461.79,-4.9414 700.65,58.6055 238.87,63.5542 370.9,133.6482 370.9,133.6482 l 54.79,165.473 -36.15,16.519 c 0,0 -156.69,-86.101 -270.65,-126.101 -113.96,-40 -439.39,-159.961 -904.52,-140.789 -122.74,5.047 -576.32,38.894 -698.49,61.914 -122.16,23.008 -286.49,29.566 -610.82,106.265 -90.65,21.457 -553.89,110.665 -925.326,76.711 C 670.996,370.148 351.594,335.613 52.7344,189.91 Z"
         id="path6" />
    </clipPath>
  </defs>
  <sodipodi:namedview
     id="namedview1"
     pagecolor="#ffffff"
     bordercolor="#000000"
     borderopacity="0.25"
     inkscape:showpageshadow="2"
     inkscape:pageopacity="0.0"
     inkscape:pagecheckerboard="0"
     inkscape:deskcolor="#d1d1d1">
    <inkscape:page
       x="0"
       y="0"
       inkscape:label="1"
       id="page1"
       width="561.74664"
       height="118.44"
       margin="0"
       bleed="0" />
  </sodipodi:namedview>
  <g
     id="g1"
     inkscape:groupmode="layer"
     inkscape:label="1">
    <g
       id="group-R5">
      <path
         id="path2"
         d="M 52.7344,189.91 8.89063,28.293 29.9648,5.80078 c 0,0 201.9262,104.10922 314.2232,143.01522 112.3,38.899 307.339,88.188 506.187,110.657 198.845,22.468 364.875,13.711 571.925,0.554 207.05,-13.14 584.45,-57.547 678.69,-72.871 94.22,-15.332 414.15,-79.441 446.47,-87.6443 32.32,-8.2109 326.46,-67.3828 533,-73.3984 206.55,-6.0235 461.79,-4.9414 700.65,58.6055 238.87,63.5542 370.9,133.6482 370.9,133.6482 l 54.79,165.473 -36.15,16.519 c 0,0 -156.69,-86.101 -270.65,-126.101 -113.96,-40 -439.39,-159.961 -904.52,-140.789 -122.74,5.047 -576.32,38.894 -698.49,61.914 -122.16,23.008 -286.49,29.566 -610.82,106.265 -90.65,21.457 -553.89,110.665 -925.326,76.711 C 670.996,370.148 351.594,335.613 52.7344,189.91"
         style="fill:url(#linearGradient6);fill-opacity:1;fill-rule:nonzero;stroke:none"
         transform="matrix(0.13333333,0,0,-0.13333333,0,118.44)"
         clip-path="url(#clipPath6)" />
      <path
         id="path7"
         d="m 202.594,360.879 v 275.809 c 0,51.566 16.875,95.05 50.703,129.21 33.808,34.094 86.117,60.313 156.891,74.825 39.734,8.144 79.496,15.254 119.23,21.425 V 743.074 c -31.383,-4.859 -62.77,-10.332 -94.152,-16.394 -18.555,-3.614 -32.411,-10.008 -41.567,-18.926 -9.136,-8.926 -13.722,-20.527 -13.722,-34.695 v -8.809 c 49.808,10.879 99.617,20.086 149.441,27.801 V 577.852 C 479.594,570.117 429.785,560.898 379.977,550.051 V 406.699 C 320.84,393.801 261.711,378.594 202.594,360.879"
         style="fill:#2a2426;fill-opacity:1;fill-rule:nonzero;stroke:none"
         transform="matrix(0.13333333,0,0,-0.13333333,0,118.44)" />
      <path
         id="path8"
         d="m 588.422,870.637 c 59.117,7.793 118.25,13.593 177.383,17.617 V 621.453 c 0,-14.117 4.57,-24.297 13.82,-30.586 9.215,-6.297 23.145,-8.875 41.844,-7.937 28.011,1.379 56.043,2.383 84.051,3.039 V 466.895 c -36.438,-0.84 -72.879,-2.293 -109.321,-4.395 -70.863,-4.133 -123.187,2.773 -157.035,23.66 -33.828,20.852 -50.742,56.633 -50.742,108.418 v 276.059"
         style="fill:#2a2426;fill-opacity:1;fill-rule:nonzero;stroke:none"
         transform="matrix(0.13333333,0,0,-0.13333333,0,118.44)" />
      <path
         id="path9"
         d="m 1303.97,763.645 c -11.52,0.878 -23.06,1.699 -34.6,2.5 -42,2.91 -73.55,1.414 -94.64,-3.782 -21.17,-5.261 -38.14,-15.222 -50.99,-29.785 60.08,-2.195 120.17,-5.683 180.23,-10.234 V 617.852 c -60.34,4.589 -120.67,8.078 -181.01,10.253 12.57,-16.445 29.5,-28.378 50.74,-35.964 21.28,-7.649 53.15,-12.59 95.67,-15.539 11.54,-0.782 23.08,-1.622 34.6,-2.481 V 455.039 c -4.96,0.391 -9.95,0.742 -14.95,1.113 -50.13,3.661 -93.91,9.082 -131.41,16.707 -37.53,7.61 -68.97,17.61 -94.4,30.286 -41.98,20.964 -74.503,46.511 -97.589,77.355 -23.086,30.809 -34.629,64.375 -34.629,101.031 0,36.43 11.469,70.293 34.422,101.321 22.961,30.996 55.536,56.445 97.796,75.675 25.43,11.414 56.87,19.532 94.4,23.946 37.5,4.402 81.28,5.019 131.41,1.347 5,-0.363 9.99,-0.734 14.95,-1.105 v -119.07"
         style="fill:#2a2426;fill-opacity:1;fill-rule:nonzero;stroke:none"
         transform="matrix(0.13333333,0,0,-0.13333333,0,118.44)" />
      <path
         id="path10"
         d="m 1336.78,880.129 c 57.12,-4.953 106.33,-15.969 147.6,-32.453 41.26,-16.504 76.32,-38.906 105.14,-66.875 28.85,20.957 64.16,34.836 105.88,41.328 41.72,6.504 91.06,5.832 148.01,-2.188 V 693.547 c -2.1,0.301 -5.11,0.816 -9.04,1.57 -3.94,0.762 -6.81,1.281 -8.64,1.543 -46.69,6.68 -82.72,3.953 -108.17,-7.937 -25.44,-11.907 -38.16,-31.797 -38.16,-59.493 0,-28.085 12.72,-51.457 38.16,-70.226 25.45,-18.777 61.48,-31.387 108.17,-38.086 1.83,-0.242 4.7,-0.574 8.64,-0.93 3.93,-0.359 6.94,-0.691 9.04,-0.984 V 392.266 c -56.41,8.527 -105.36,21.347 -146.82,38.664 -41.47,17.261 -77.15,39.793 -107.07,67.742 -29.93,-20.684 -65.5,-34.531 -106.69,-41.887 -41.19,-7.383 -89.89,-8.57 -146.05,-4.344 -0.13,42.254 -0.26,84.5 -0.39,126.758 2.35,-0.207 5.44,-0.566 9.24,-1.086 3.79,-0.535 6.63,-0.855 8.45,-1.004 46.94,-4.035 83.14,0 108.58,12.696 25.41,12.707 38.15,32.968 38.15,61.054 0,27.715 -12.77,50.664 -38.29,68.684 -25.51,17.957 -61.54,29.273 -108.06,33.27 -1.87,0.167 -4.67,0.273 -8.47,0.41 -3.79,0.105 -6.86,0.273 -9.21,0.488 v 126.418"
         style="fill:#2a2426;fill-opacity:1;fill-rule:nonzero;stroke:none"
         transform="matrix(0.13333333,0,0,-0.13333333,0,118.44)" />
      <path
         id="path11"
         d="M 2375.52,622.949 V 314.355 c -59.11,8.055 -118.24,16.575 -177.39,25.286 v 308.574 c -35.61,5.262 -71.26,10.613 -106.9,15.926 v 119.062 c 130.41,-19.519 260.81,-38.816 391.22,-55.254 V 608.887 c -35.63,4.492 -71.27,9.211 -106.93,14.062"
         style="fill:#2a2426;fill-opacity:1;fill-rule:nonzero;stroke:none"
         transform="matrix(0.13333333,0,0,-0.13333333,0,118.44)" />
      <path
         id="path12"
         d="m 2524.63,295.645 v 263.613 c 0,52.051 19.51,91.101 58.57,117.539 39.06,26.484 91.21,36.262 156.47,30.437 60.54,-5.347 111.53,-21.914 152.97,-50.347 41.39,-28.418 62.1,-61.094 62.1,-98.907 0,-18.058 -5.37,-33.703 -16.12,-46.796 -10.7,-13.125 -26.81,-23.774 -48.26,-31.868 25.03,-8.078 43.04,-19.023 54.01,-33.117 10.94,-14.121 16.43,-33.511 16.43,-58.301 V 257.551 c -58.3,2.461 -116.63,6.172 -174.96,10.84 v 112.207 c 0,13.699 -3.85,23.418 -11.56,29.215 -7.75,5.785 -22.72,9.601 -44.96,11.632 -2.63,0.227 -5.25,0.45 -7.87,0.711 v 105.703 c 2.89,-0.281 5.78,-0.523 8.63,-0.789 19.13,-1.726 33.62,-0.222 43.46,4.461 9.82,4.68 14.74,12.434 14.74,23.215 0,9.024 -4.14,16.914 -12.42,23.66 -8.24,6.762 -18.44,10.637 -30.51,11.699 -15.5,1.379 -26.61,-1.433 -33.28,-8.445 -6.72,-7.031 -10.06,-19.531 -10.06,-37.578 V 276.328 c -59.11,5.613 -118.26,12.156 -177.38,19.317"
         style="fill:#2a2426;fill-opacity:1;fill-rule:nonzero;stroke:none"
         transform="matrix(0.13333333,0,0,-0.13333333,0,118.44)" />
      <path
         id="path13"
         d="m 3019.5,255.438 v 427.687 c 59.13,-1.66 118.26,-2.012 177.38,-0.781 V 254.656 c -59.12,-1.211 -118.25,-0.886 -177.38,0.782"
         style="fill:#2a2426;fill-opacity:1;fill-rule:nonzero;stroke:none"
         transform="matrix(0.13333333,0,0,-0.13333333,0,118.44)" />
      <path
         id="path14"
         d="m 3247.67,256.113 c 14.45,116.121 28.86,232.364 43.32,348.692 3.65,28.879 16.24,51.34 37.75,67.683 21.54,16.399 50.94,25.95 88.21,29.399 30.72,2.847 56.06,0.105 76.18,-8.614 20.04,-8.73 33.64,-22.902 40.73,-42.863 9.98,-30 19.95,-59.949 29.93,-89.824 2.07,-6.887 4.33,-15.012 6.69,-24.414 2.35,-9.414 4.87,-20.176 7.48,-32.317 4.18,20.754 7.18,35.024 9.04,42.793 1.82,7.747 3.4,13.711 4.72,17.93 9.96,33.039 19.94,66.164 29.91,99.34 6.83,22.059 20.35,40.406 40.55,55.359 20.21,14.981 45.66,25.586 76.37,32.371 37.27,8.247 66.66,8.118 88.2,-1.316 21.5,-9.414 33.97,-27.754 37.38,-55.477 14.84,-111.488 29.66,-222.832 44.48,-333.976 -57.98,-17.383 -115.99,-32.332 -173.99,-45.051 -7.86,90.664 -15.75,181.391 -23.6,272.152 -1.58,-11.464 -3.51,-22.531 -5.75,-33.175 -2.21,-10.617 -4.49,-20.606 -6.86,-30.039 -17.84,-60.911 -35.7,-121.614 -53.54,-182.09 -5.24,-18.106 -13.39,-32.356 -24.41,-42.61 -11.04,-10.253 -25.18,-16.793 -42.5,-19.453 -17.06,-2.625 -31.12,-0.425 -42.15,6.438 -11,6.867 -19.3,18.574 -24.79,35.039 -17.71,54.98 -35.42,110.176 -53.16,165.527 -2.08,6.133 -4.32,14.297 -6.67,24.524 -2.37,10.214 -4.73,21.757 -7.09,34.668 -7.73,-93.223 -15.46,-186.379 -23.21,-279.504 -57.76,-5.469 -115.47,-9.102 -173.22,-11.192"
         style="fill:#2a2426;fill-opacity:1;fill-rule:nonzero;stroke:none"
         transform="matrix(0.13333333,0,0,-0.13333333,0,118.44)" />
      <path
         id="path15"
         d="M 7.98047,25.3203 51.7617,188.145 C 853.246,573.074 1677.31,280.82 2072.82,222.605 m -43.91,-26.113 C 1215.98,299.922 666.711,351.563 29.9648,5.80078 L 7.98047,25.3203 C 611.754,397.043 1347.76,326.105 2193.66,209.68 M 29.8711,116.531 c 10.9844,6.516 32.9297,6.516 32.9297,13.02 l 21.9687,0.039 c 32.9575,6.543 43.9025,32.598 76.8325,52.195 l 10.988,6.488 c 10.98,19.54 10.98,19.54 43.914,26.09 21.949,26.047 87.851,39.184 98.801,71.723 v 6.504 M 29.8945,90.4688 c 21.9805,6.5429 76.8825,6.582 98.8325,19.6092 21.964,19.57 54.902,13.074 87.851,26.133 m 10.906,58.613 c 21.969,19.563 65.922,6.602 76.891,32.649 0,0 10.98,6.511 10.98,13.035 21.934,6.504 43.903,19.558 54.883,19.558 43.918,6.567 98.84,26.145 120.785,45.747 21.95,0 87.872,0.054 98.875,-12.961 l -43.918,-0.059 -11.003,-6.504 c -21.969,-13.035 -43.93,-13.035 -65.883,-19.601 -54.918,-6.559 -76.848,-45.672 -120.781,-58.719 -21.969,-6.531 -54.907,-0.078 -65.907,-6.582 -10.965,-0.02 -43.898,-13.059 -54.922,-6.563 M 51.7813,162.09 l 21.9882,6.562 c 10.9649,6.516 21.9297,26.075 32.9145,26.075 10.961,6.503 32.933,13.039 43.918,26.101 21.964,0 43.894,19.555 54.902,26.059 m 252.641,-25.793 c 43.902,26.094 98.835,19.636 142.753,45.703 32.934,26.074 87.852,26.133 109.801,52.219 21.934,13.054 43.918,26.074 54.848,39.129 43.969,0.031 87.887,6.582 120.82,13.125 22,0.039 43.953,13.054 54.918,13.054 M 425.121,318.762 c 109.801,13.101 241.609,19.761 329.442,58.906 M 699.77,266.914 c 10.968,13.035 21.914,39.082 32.882,45.613 65.899,6.567 131.821,6.621 186.723,26.203 11,0.04 21.949,13.04 32.93,13.04 43.922,19.609 109.815,26.16 164.745,26.191 M 842.523,286.555 c 0,6.519 21.969,13.047 32.957,13.101 21.926,19.516 65.864,26.074 98.813,32.641 l 87.867,26.121 c 43.9,6.562 98.8,13.098 131.79,13.145 m -186.67,-71.829 c 21.97,0.039 43.9,13.071 54.9,13.071 65.89,19.617 153.78,13.179 219.68,26.258 10.96,0.019 32.95,6.562 32.91,13.054 l 32.94,6.567 m -175.67,-58.782 c 21.98,0.039 54.92,6.543 65.9,6.543 65.89,0.078 109.84,13.133 175.74,6.719 21.99,-6.492 32.97,-6.516 54.94,-6.492 32.93,6.558 65.9,-6.418 87.87,0.098 10.98,6.543 43.96,6.558 54.92,6.558 m -76.87,-32.637 c 65.91,13.079 142.77,0.129 208.67,0.188 0.02,-6.504 11.03,-6.504 22.01,-6.484 11,0 21.95,6.523 21.95,6.523 M 2182.68,209.68 C 2984.59,106.238 3533.88,54.6406 4170.65,400.359 l 32.95,-19.507 C 3566.9,15.5977 2863.85,80.0391 2017.96,196.477 M 4203.6,380.852 4148.84,218.02 C 3347.33,-166.957 2523.27,125.332 2127.8,183.555 m 2042.91,106.074 c -10.96,-6.477 -32.89,-6.531 -32.91,-13.059 h -21.97 c -32.95,-6.519 -43.94,-32.617 -76.85,-52.156 L 4028,217.891 c -10.99,-19.551 -10.99,-19.551 -32.93,-26.094 -32.92,-26.035 -87.82,-39.141 -109.81,-71.699 m 296.46,195.593 c -32.96,-6.503 -87.91,-6.582 -98.86,-19.597 -21.99,-19.578 -65.9,-13.086 -98.82,-19.629 M 3973.1,211.34 c -21.97,-19.563 -54.91,-6.543 -76.87,-32.629 0,0 -10.97,-6.531 -10.95,-13.059 -21.99,-6.543 -32.97,-19.539 -54.94,-19.558 -32.93,-6.543 -87.81,-26.145 -120.76,-45.711 -21.99,-0.031 -87.87,-0.09 -98.88,12.93 l 43.96,0.046 10.97,6.516 c 21.96,13.055 43.95,13.074 65.88,19.578 54.92,6.582 87.87,45.703 131.77,58.762 10.93,6.492 43.94,0.015 54.91,6.582 21.92,-0.024 43.94,13.016 54.91,6.543 m 186.67,32.715 -32.93,-6.535 c -10.97,-6.504 -10.97,-26.067 -32.94,-26.102 -10.98,-6.508 -32.95,-13.02 -43.9,-26.035 -10.95,-0.051 -43.9,-19.582 -43.94,-26.125 m -263.62,32.312 c -43.9,-26.082 -98.78,-26.16 -142.73,-52.215 -32.9,-26.042 -76.88,-26.164 -109.81,-52.2066 -10.96,-13.039 -32.93,-26.0742 -54.9,-39.1132 -43.94,-0.0157 -76.87,-6.5977 -120.78,-13.1407 -21.97,0 -32.95,-13.0586 -54.92,-13.0586 m 516.22,65.586 C 3665.66,74.3164 3544.8,67.6563 3446.04,28.4961 m 54.81,110.7539 c -0.02,-6.496 -21.97,-39.102 -32.91,-45.5977 -65.89,-6.5625 -131.79,-6.6406 -186.67,-26.2421 -11.03,-0.0157 -21.99,-13.0157 -32.99,-13.0157 -43.9,-19.6093 -109.8,-26.1797 -153.72,-26.2109 m 274.48,91.3864 c -10.96,-6.484 -32.93,-13.015 -32.93,-13.015 -32.92,-19.5628 -76.87,-26.1644 -98.83,-32.6878 l -98.8,-26.125 c -32.95,-6.5313 -98.86,-13.1133 -131.85,-13.1328 m 186.69,71.8356 c -21.96,-0.039 -32.95,-13.0544 -54.94,-13.1247 -65.84,-19.5976 -153.73,-13.164 -219.62,-26.2578 -10.98,0.0391 -32.95,-13.0391 -43.96,-13.0391 L 2863.85,47.5 m 164.73,58.738 c -11,0.039 -32.95,0 -43.99,0 -65.86,-6.5974 -131.77,-19.656 -197.65,-13.2185 -11.02,6.5118 -32.96,6.4727 -54.94,6.4727 -21.98,-6.5547 -65.92,6.4378 -87.91,-0.0781 -10.95,-6.5625 -32.89,-13.0743 -43.93,-6.5821 m 54.94,26.106 c -65.93,-13.086 -120.86,-0.09 -197.75,-0.208 -0.02,6.551 -10.96,13.055 -21.97,13.02 l -21.93,-6.508 M 4203.6,380.852 4148.84,218.02 C 3347.33,-166.957 2523.27,125.332 2127.8,183.555 m 1614.64,8.015 c -43.9,-26.082 -98.78,-26.16 -142.73,-52.215 -32.9,-26.042 -76.88,-26.164 -109.81,-52.2066 -10.96,-13.039 -32.93,-26.0742 -54.9,-39.1132 -43.94,-0.0157 -76.87,-6.5977 -120.78,-13.1407 -21.97,0 -32.95,-13.0586 -54.92,-13.0586 M 3500.85,139.25 c -0.02,-6.496 -21.97,-39.102 -32.91,-45.5977 -65.89,-6.5625 -131.79,-6.6406 -186.67,-26.2421 -11.03,-0.0157 -21.99,-13.0157 -32.99,-13.0157 -43.9,-19.6093 -109.8,-26.1797 -153.72,-26.2109 M 29.8711,116.531 c 10.9844,6.516 32.9297,6.516 32.9297,13.02 l 21.9687,0.039 c 32.9575,6.543 43.9025,32.598 76.8325,52.195 l 10.988,6.488 c 10.98,19.54 10.98,19.54 43.914,26.09 21.949,26.047 87.851,39.184 98.801,71.723 v 6.504 M 29.8945,90.4688 c 21.9805,6.5429 76.8825,6.582 98.8325,19.6092 21.964,19.57 54.902,13.074 87.851,26.133 m 10.906,58.613 c 21.969,19.563 65.922,6.602 76.891,32.649 0,0 10.98,6.511 10.98,13.035 21.934,6.504 43.903,19.558 54.883,19.558 43.918,6.567 98.84,26.145 120.785,45.747 21.95,0 87.872,0.054 98.875,-12.961 l -43.918,-0.059 -11.003,-6.504 c -21.969,-13.035 -43.93,-13.035 -65.883,-19.601 -54.918,-6.559 -76.848,-45.672 -120.781,-58.719 -21.969,-6.531 -54.907,-0.078 -65.907,-6.582 -10.965,-0.02 -43.898,-13.059 -54.922,-6.563 M 51.7813,162.09 l 21.9882,6.562 c 10.9649,6.516 21.9297,26.075 32.9145,26.075 10.961,6.503 32.933,13.039 43.918,26.101 21.964,0 43.894,19.555 54.902,26.059 m 252.641,-25.793 c 43.902,26.094 98.835,19.636 142.753,45.703 32.934,26.074 87.852,26.133 109.801,52.219 21.934,13.054 43.918,26.074 54.848,39.129 43.969,0.031 87.887,6.582 120.82,13.125 22,0.039 43.953,13.054 54.918,13.054 M 425.121,318.762 c 109.801,13.101 241.609,19.761 329.442,58.906 M 699.77,266.914 c 10.968,13.035 21.914,39.082 32.882,45.613 65.899,6.567 131.821,6.621 186.723,26.203 11,0.04 21.949,13.04 32.93,13.04 43.922,19.609 109.815,26.16 164.745,26.191 M 842.523,286.555 c 0,6.519 21.969,13.047 32.957,13.101 21.926,19.516 65.864,26.074 98.813,32.641 l 87.867,26.121 c 43.9,6.562 98.8,13.098 131.79,13.145 m -186.67,-71.829 c 21.97,0.039 43.9,13.071 54.9,13.071 65.89,19.617 153.78,13.179 219.68,26.258 10.96,0.019 32.95,6.562 32.91,13.054 l 32.94,6.567 m -175.67,-58.782 c 21.98,0.039 54.92,6.543 65.9,6.543 65.89,0.078 109.84,13.133 175.74,6.719 21.99,-6.492 32.97,-6.516 54.94,-6.492 32.93,6.558 65.9,-6.418 87.87,0.098 10.98,6.543 43.96,6.558 54.92,6.558 m -76.87,-32.637 c 65.91,13.079 142.77,0.129 208.67,0.188 0.02,-6.504 11.03,-6.504 22.01,-6.484 11,0 21.95,6.523 21.95,6.523 M 2182.68,209.68 C 2984.59,106.238 3533.88,54.6406 4170.65,400.359 l 32.95,-19.507 C 3566.9,15.5977 2863.85,80.0391 2017.96,196.477 m 2152.75,93.152 c -10.96,-6.477 -32.89,-6.531 -32.91,-13.059 h -21.97 c -32.95,-6.519 -43.94,-32.617 -76.85,-52.156 L 4028,217.891 c -10.99,-19.551 -10.99,-19.551 -32.93,-26.094 -32.92,-26.035 -87.82,-39.141 -109.81,-71.699 m 296.46,195.593 c -32.96,-6.503 -87.91,-6.582 -98.86,-19.597 -21.99,-19.578 -65.9,-13.086 -98.82,-19.629 M 3973.1,211.34 c -21.97,-19.563 -54.91,-6.543 -76.87,-32.629 0,0 -10.97,-6.531 -10.95,-13.059 -21.99,-6.543 -32.97,-19.539 -54.94,-19.558 -32.93,-6.543 -87.81,-26.145 -120.76,-45.711 -21.99,-0.031 -87.87,-0.09 -98.88,12.93 l 43.96,0.046 10.97,6.516 c 21.96,13.055 43.95,13.074 65.88,19.578 54.92,6.582 87.87,45.703 131.77,58.762 10.93,6.492 43.94,0.015 54.91,6.582 21.92,-0.024 43.94,13.016 54.91,6.543 m 186.67,32.715 -32.93,-6.535 c -10.97,-6.504 -10.97,-26.067 -32.94,-26.102 -10.98,-6.508 -32.95,-13.02 -43.9,-26.035 -10.95,-0.051 -43.9,-19.582 -43.94,-26.125 M 3775.52,87.4219 C 3665.66,74.3164 3544.8,67.6563 3446.04,28.4961 m -77,91.0739 c -10.96,-6.484 -32.93,-13.015 -32.93,-13.015 -32.92,-19.5628 -76.87,-26.1644 -98.83,-32.6878 l -98.8,-26.125 c -32.95,-6.5313 -98.86,-13.1133 -131.85,-13.1328 m 186.69,71.8356 c -21.96,-0.039 -32.95,-13.0544 -54.94,-13.1247 -65.84,-19.5976 -153.73,-13.164 -219.62,-26.2578 -10.98,0.0391 -32.95,-13.0391 -43.96,-13.0391 L 2863.85,47.5 m 164.73,58.738 c -11,0.039 -32.95,0 -43.99,0 -65.86,-6.5974 -131.77,-19.656 -197.65,-13.2185 -11.02,6.5118 -32.96,6.4727 -54.94,6.4727 -21.98,-6.5547 -65.92,6.4378 -87.91,-0.0781 -10.95,-6.5625 -32.89,-13.0743 -43.93,-6.5821 m 54.94,26.106 c -65.93,-13.086 -120.86,-0.09 -197.75,-0.208 -0.02,6.551 -10.96,13.055 -21.97,13.02 l -21.93,-6.508"
         style="fill:none;stroke:#2a2426;stroke-width:9.5479;stroke-linecap:butt;stroke-linejoin:miter;stroke-miterlimit:4;stroke-dasharray:none;stroke-opacity:1"
         transform="matrix(0.13333333,0,0,-0.13333333,0,118.44)" />
      <path
         id="path16"
         d="m 4035.45,689.102 h -9.95 v 82.949 h -0.38 l -27.75,-82.949 h -6.5 l -27.74,82.949 h -0.4 v -82.949 h -9.94 v 92.628 h 18.37 l 22.96,-68.429 h 0.38 l 22.58,68.429 h 18.37 z m -97.59,83.828 h -25.63 v -83.828 h -9.95 v 83.828 h -25.65 v 8.8 h 61.23 v -8.8"
         style="fill:#100f0d;fill-opacity:1;fill-rule:nonzero;stroke:none"
         transform="matrix(0.13333333,0,0,-0.13333333,0,118.44)" />
    </g>
  </g>
</svg>
