<?xml version="1.0" encoding="UTF-8" standalone="no"?>
<!-- Created with Inkscape (http://www.inkscape.org/) -->

<svg
   version="1.1"
   id="svg1"
   width="492.57333"
   height="100.61333"
   viewBox="0 0 492.57333 100.61333"
   sodipodi:docname="Carter-Millwork-Logo.eps"
   xmlns:inkscape="http://www.inkscape.org/namespaces/inkscape"
   xmlns:sodipodi="http://sodipodi.sourceforge.net/DTD/sodipodi-0.dtd"
   xmlns="http://www.w3.org/2000/svg"
   xmlns:svg="http://www.w3.org/2000/svg">
  <defs
     id="defs1" />
  <sodipodi:namedview
     id="namedview1"
     pagecolor="#ffffff"
     bordercolor="#000000"
     borderopacity="0.25"
     inkscape:showpageshadow="2"
     inkscape:pageopacity="0.0"
     inkscape:pagecheckerboard="0"
     inkscape:deskcolor="#d1d1d1">
    <inkscape:page
       x="0"
       y="0"
       inkscape:label="1"
       id="page1"
       width="492.57333"
       height="100.61333"
       margin="0"
       bleed="0" />
  </sodipodi:namedview>
  <g
     id="g1"
     inkscape:groupmode="layer"
     inkscape:label="1">
    <g
       id="group-R5">
      <path
         id="path2"
         d="m 816.672,610.883 c 0,-70.617 71.43,-143.664 190.948,-143.664 68.13,0 94.23,9.594 111.49,15.965 l 1.99,0.714 v 64.723 l -64.32,-40.523 c -13.68,-8.785 -28.37,-12.539 -49.16,-12.539 -75.64,0 -102.581,59.578 -102.581,115.324 0,34.676 9.988,115.308 102.581,115.308 20.77,0 35.48,-3.734 49.14,-12.515 0.02,-0.004 64.34,-40.535 64.34,-40.535 v 64.242 l -4.32,1.586 c -17.85,6.582 -42.3,15.586 -109.16,15.586 -117.948,0 -190.948,-74.578 -190.948,-143.672"
         style="fill:#14151b;fill-opacity:1;fill-rule:nonzero;stroke:none"
         transform="matrix(0.13333333,0,0,-0.13333333,0,100.61333)" />
      <path
         id="path3"
         d="m 1254.4,576.785 c 4.36,7.903 50.49,91.528 55.23,100.11 4.59,-8.641 49.02,-92.278 53.18,-100.11 -8.84,0 -99.4,0 -108.41,0 z m 275.92,-105.863 c 0,0 -45.09,28.512 -46.37,29.328 -0.76,1.371 -136.52,250.586 -136.52,250.586 h -44.36 c 0,0 -138.72,-249.234 -139.47,-250.582 -1.27,-0.801 -46.4,-29.332 -46.4,-29.332 h 138.2 c 0,0 -39.4,24.668 -43.62,27.305 2.39,4.425 25.52,47.336 27.07,50.195 3.48,0 135.88,0 139.41,0 1.53,-2.91 24.06,-45.77 26.37,-50.164 -4.18,-2.617 -43.64,-27.336 -43.64,-27.336 h 169.33"
         style="fill:#14151b;fill-opacity:1;fill-rule:nonzero;stroke:none"
         transform="matrix(0.13333333,0,0,-0.13333333,0,100.61333)" />
      <path
         id="path4"
         d="m 1605.51,722.48 c 5.27,0 40.69,0 40.69,0 39.61,0 71.85,-22.367 71.85,-49.867 0,-25.781 -32.91,-47.554 -71.85,-47.554 0,0 -35.42,0 -40.69,0 0,5.558 0,91.867 0,97.421 z m 44.46,-125.781 c 1.79,-2.156 104.13,-125.777 104.13,-125.777 h 106.44 c 0,0 -45.21,28.594 -45.95,29.043 -0.52,0.633 -87.41,99.035 -93.53,105.957 46.72,10.848 79.04,37.726 79.04,66.691 0,50.809 -79.3,78.223 -153.9,78.223 h -158.83 c 0,0 42.71,-26.738 45.35,-28.395 0,-3.281 0,-219.828 0,-223.121 -2.64,-1.66 -45.35,-28.398 -45.35,-28.398 h 163.48 c 0,0 -42.71,26.738 -45.34,28.398 0,3.157 0,91.754 0,97.379 5.17,0 41.94,0 44.46,0"
         style="fill:#14151b;fill-opacity:1;fill-rule:nonzero;stroke:none"
         transform="matrix(0.13333333,0,0,-0.13333333,0,100.61333)" />
      <path
         id="path5"
         d="m 1838.48,750.836 v -62.395 c 0,0 52.51,33.133 53.94,34.039 1.66,0 63.97,0 69.47,0 0,-5.867 0,-219.89 0,-223.16 -2.64,-1.66 -45.33,-28.398 -45.33,-28.398 h 163.46 c 0,0 -42.69,26.738 -45.33,28.394 0,3.274 0,217.297 0,223.164 5.52,0 67.81,0 69.47,0 1.44,-0.906 53.95,-34.039 53.95,-34.039 v 62.395 h -319.63"
         style="fill:#14151b;fill-opacity:1;fill-rule:nonzero;stroke:none"
         transform="matrix(0.13333333,0,0,-0.13333333,0,100.61333)" />
      <path
         id="path6"
         d="m 2181.53,750.836 c 0,0 42.72,-26.738 45.36,-28.395 0,-3.281 0,-219.828 0,-223.121 -2.64,-1.66 -45.36,-28.398 -45.36,-28.398 h 287.88 v 62.379 c 0,0 -52.5,-33.125 -53.93,-34.028 -1.69,0 -110.08,0 -115.81,0 0,5.59 0,101.579 0,107.176 5.6,0 80.42,0 82.08,0 1.4,-0.902 41.36,-26.144 41.36,-26.144 v 80.636 c 0,0 -39.96,-25.226 -41.36,-26.132 -1.66,0 -76.48,0 -82.08,0 0,5.504 0,82.175 0,87.671 5.73,0 114.12,0 115.81,0 1.43,-0.906 53.93,-34.039 53.93,-34.039 v 62.395 h -287.88"
         style="fill:#14151b;fill-opacity:1;fill-rule:nonzero;stroke:none"
         transform="matrix(0.13333333,0,0,-0.13333333,0,100.61333)" />
      <path
         id="path7"
         d="m 2617.29,722.48 c 5.29,0 40.71,0 40.71,0 39.59,0 71.81,-22.367 71.81,-49.867 0,-25.781 -32.88,-47.554 -71.81,-47.554 0,0 -35.42,0 -40.71,0 0,5.558 0,91.867 0,97.421 z m 44.46,-125.781 c 1.79,-2.156 104.16,-125.777 104.16,-125.777 h 106.41 c 0,0 -45.2,28.594 -45.93,29.043 -0.55,0.633 -87.42,99.035 -93.54,105.957 46.7,10.84 79.04,37.726 79.04,66.691 0,50.809 -79.28,78.223 -153.89,78.223 h -158.83 c 0,0 42.69,-26.738 45.33,-28.395 0,-3.281 0,-219.828 0,-223.121 -2.64,-1.66 -45.33,-28.398 -45.33,-28.398 h 163.46 c 0,0 -42.69,26.738 -45.34,28.394 0,3.161 0,91.758 0,97.383 5.19,0 41.94,0 44.46,0"
         style="fill:#14151b;fill-opacity:1;fill-rule:nonzero;stroke:none"
         transform="matrix(0.13333333,0,0,-0.13333333,0,100.61333)" />
      <path
         id="path8"
         d="m 1172.29,420.684 c 0,0 -110.27,-123.985 -114.63,-128.887 -4.37,4.902 -114.637,128.887 -114.637,128.887 H 809.137 c 0,0 42.703,-26.746 45.343,-28.399 0,-3.285 0,-219.844 0,-223.113 -2.64,-1.66 -45.343,-28.418 -45.343,-28.418 h 138.644 c 0,0 -42.703,26.758 -45.347,28.418 0,3.172 0,180.527 0,195.066 9.796,-10.918 133.736,-148.867 133.736,-148.867 0,0 123.55,137.902 133.33,148.848 0,-14.539 0,-191.875 0,-195.047 -2.63,-1.66 -45.33,-28.418 -45.33,-28.418 h 163.47 c 0,0 -42.7,26.758 -45.35,28.418 0,3.269 0,219.828 0,223.113 2.65,1.653 45.35,28.399 45.35,28.399 h -115.35"
         style="fill:#14151b;fill-opacity:1;fill-rule:nonzero;stroke:none"
         transform="matrix(0.13333333,0,0,-0.13333333,0,100.61333)" />
      <path
         id="path9"
         d="m 1293.54,420.684 c 0,0 42.7,-26.746 45.34,-28.399 0,-3.285 0,-219.844 0,-223.113 -2.64,-1.66 -45.34,-28.418 -45.34,-28.418 h 163.02 c 0,0 -42.26,26.738 -44.89,28.398 0,3.27 0,219.871 0,223.145 2.63,1.656 44.89,28.387 44.89,28.387 h -163.02"
         style="fill:#14151b;fill-opacity:1;fill-rule:nonzero;stroke:none"
         transform="matrix(0.13333333,0,0,-0.13333333,0,100.61333)" />
      <path
         id="path10"
         d="m 1469.95,420.684 c 0,0 42.7,-26.746 45.34,-28.399 0,-3.285 0,-219.844 0,-223.113 -2.64,-1.66 -45.34,-28.418 -45.34,-28.418 h 272.69 v 62.402 c 0,0 -52.51,-33.125 -53.95,-34.035 -1.68,0 -94.92,0 -100.61,0 0,5.871 0,219.899 0,223.164 2.65,1.653 45.35,28.399 45.35,28.399 h -163.48"
         style="fill:#14151b;fill-opacity:1;fill-rule:nonzero;stroke:none"
         transform="matrix(0.13333333,0,0,-0.13333333,0,100.61333)" />
      <path
         id="path11"
         d="m 1760.15,420.684 c 0,0 42.69,-26.746 45.33,-28.399 0,-3.285 0,-219.844 0,-223.113 -2.64,-1.66 -45.33,-28.418 -45.33,-28.418 h 272.68 v 62.402 c 0,0 -52.51,-33.125 -53.94,-34.035 -1.69,0 -94.93,0 -100.61,0 0,5.871 0,219.899 0,223.164 2.64,1.653 45.35,28.399 45.35,28.399 h -163.48"
         style="fill:#14151b;fill-opacity:1;fill-rule:nonzero;stroke:none"
         transform="matrix(0.13333333,0,0,-0.13333333,0,100.61333)" />
      <path
         id="path12"
         d="m 2453.58,420.684 c 0,0 39.59,-24.801 43.71,-27.364 -2.3,-4.644 -80.55,-163.41 -85.69,-173.836 -5.01,10.508 -80.35,169.207 -82.54,173.813 4.06,2.527 43.77,27.387 43.77,27.387 h -169.31 c 0,0 44.9,-28.407 46.28,-29.286 0.71,-1.398 12.63,-25.664 13.79,-28.039 -1.26,-2.558 -65.94,-133.601 -71.05,-143.894 -4.99,10.457 -80.67,169.226 -82.86,173.832 4.05,2.543 43.74,27.387 43.74,27.387 h -169.45 c 0,0 45.41,-28.414 46.79,-29.297 0.78,-1.532 123.9,-250.633 123.9,-250.633 h 44.52 c 0,0 83.04,163.914 88.17,174.062 5.06,-10.187 86.72,-174.062 86.72,-174.062 h 44.52 c 0,0 126.09,249.129 126.84,250.629 1.39,0.867 46.8,29.301 46.8,29.301 h -138.65"
         style="fill:#14151b;fill-opacity:1;fill-rule:nonzero;stroke:none"
         transform="matrix(0.13333333,0,0,-0.13333333,0,100.61333)" />
      <path
         id="path13"
         d="m 2753.24,163.566 c -92.6,0 -102.6,81.922 -102.6,117.168 0,35.223 10,117.168 102.6,117.168 92.61,0 102.6,-81.945 102.6,-117.168 0,-35.246 -9.99,-117.168 -102.6,-117.168 z m 0,263.157 c -119.53,0 -190.95,-74.231 -190.95,-145.989 0,-71.769 71.42,-145.996 190.95,-145.996 119.51,0 190.95,74.227 190.95,145.996 0,71.758 -71.44,145.989 -190.95,145.989"
         style="fill:#14151b;fill-opacity:1;fill-rule:nonzero;stroke:none"
         transform="matrix(0.13333333,0,0,-0.13333333,0,100.61333)" />
      <path
         id="path14"
         d="m 3069.46,392.336 c 5.27,0 40.69,0 40.69,0 39.61,0 71.83,-22.383 71.83,-49.883 0,-25.773 -32.9,-47.551 -71.83,-47.551 0,0 -35.42,0 -40.69,0 0,5.547 0,91.871 0,97.434 z m 44.44,-125.793 c 1.8,-2.148 104.13,-125.789 104.13,-125.789 h 106.47 c 0,0 -45.23,28.594 -45.94,29.062 -0.58,0.614 -87.45,99.032 -93.56,105.957 46.72,10.84 79.03,37.723 79.03,66.68 0,50.82 -79.28,78.231 -153.88,78.231 h -158.83 c 0,0 42.71,-26.746 45.35,-28.399 0,-3.285 0,-219.844 0,-223.113 -2.64,-1.66 -45.35,-28.418 -45.35,-28.418 h 163.47 c 0,0 -42.71,26.758 -45.33,28.398 0,3.153 0,91.766 0,97.391 5.19,0 41.92,0 44.44,0"
         style="fill:#14151b;fill-opacity:1;fill-rule:nonzero;stroke:none"
         transform="matrix(0.13333333,0,0,-0.13333333,0,100.61333)" />
      <path
         id="path15"
         d="m 3537.27,420.684 c 0,0 31.86,-19.969 38.21,-23.922 -7.61,-4.754 -146.5,-91.723 -155.08,-97.074 0,9.628 0,89.531 0,92.597 2.7,1.653 45.35,28.399 45.35,28.399 h -163.46 c 0,0 42.7,-26.746 45.34,-28.399 0,-3.285 0,-219.844 0,-223.113 -2.64,-1.66 -45.34,-28.418 -45.34,-28.418 h 163.46 c 0,0 -42.65,26.758 -45.35,28.398 0,3.094 0,99.825 0,110.879 9.16,-7.187 144.43,-113.672 146.64,-115.422 0,-2.57 0,-23.855 0,-23.855 h 124.12 c 0,0 -199.68,157.273 -206.25,162.43 7.05,4.406 187.68,117.5 187.68,117.5 h -135.32"
         style="fill:#14151b;fill-opacity:1;fill-rule:nonzero;stroke:none"
         transform="matrix(0.13333333,0,0,-0.13333333,0,100.61333)" />
      <path
         id="path16"
         d="M 873.203,2.92188 H 854.242 V 97.4023 h 83.903 V 78.4375 H 873.203 V 61.2891 h 34.301 V 42.3164 H 873.203 V 2.92188"
         style="fill:#9c1b20;fill-opacity:1;fill-rule:nonzero;stroke:none"
         transform="matrix(0.13333333,0,0,-0.13333333,0,100.61333)" />
      <path
         id="path17"
         d="M 1048.68,97.4023 V 21.8945 h 54.36 V 2.92188 h -73.33 V 97.4023 h 18.97"
         style="fill:#9c1b20;fill-opacity:1;fill-rule:nonzero;stroke:none"
         transform="matrix(0.13333333,0,0,-0.13333333,0,100.61333)" />
      <path
         id="path18"
         d="M 1274.34,97.4023 V 78.4375 H 1209.4 V 61.2891 h 34.29 V 42.3164 H 1209.4 V 21.8945 h 67.12 V 2.92188 h -86.1 V 97.4023 h 83.92"
         style="fill:#9c1b20;fill-opacity:1;fill-rule:nonzero;stroke:none"
         transform="matrix(0.13333333,0,0,-0.13333333,0,100.61333)" />
      <path
         id="path19"
         d="M 1401.47,53.9922 1365,97.4023 h 25.71 l 23.71,-29.0039 24.99,29.0039 h 24.99 L 1427.19,53.9922 1470.24,2.92188 H 1444.7 L 1414.42,39.043 1383.6,2.92188 h -25.72 l 43.59,51.07032"
         style="fill:#9c1b20;fill-opacity:1;fill-rule:nonzero;stroke:none"
         transform="matrix(0.13333333,0,0,-0.13333333,0,100.61333)" />
      <path
         id="path20"
         d="M 1571.31,97.4023 V 2.92188 h -18.97 V 97.4023 h 18.97"
         style="fill:#9c1b20;fill-opacity:1;fill-rule:nonzero;stroke:none"
         transform="matrix(0.13333333,0,0,-0.13333333,0,100.61333)" />
      <path
         id="path21"
         d="M 1686.25,43.0469 V 21.8945 h 42.67 c 8.2,0 14.6,2.5508 14.6,10.7539 0,8.9336 -7.3,10.3985 -14.6,10.3985 z m 0,18.9765 h 42.67 c 5.3,0 9.84,2.9102 9.84,8.3789 0,6.3946 -4.73,8.0352 -9.84,8.0352 h -42.67 z m 42.67,35.3789 c 17.89,0 28.82,-8.5742 28.82,-26.0937 0,-5.8281 -2.19,-12.5664 -6.38,-16.7578 5.1,-4.0313 11.13,-10.0469 11.13,-22.0781 0,-18.9766 -13.69,-29.55082 -33.57,-29.55082 h -61.65 V 97.4023 h 61.65"
         style="fill:#9c1b20;fill-opacity:1;fill-rule:nonzero;stroke:none"
         transform="matrix(0.13333333,0,0,-0.13333333,0,100.61333)" />
      <path
         id="path22"
         d="M 1880.87,97.4023 V 21.8945 h 54.34 V 2.92188 h -73.32 V 97.4023 h 18.98"
         style="fill:#9c1b20;fill-opacity:1;fill-rule:nonzero;stroke:none"
         transform="matrix(0.13333333,0,0,-0.13333333,0,100.61333)" />
      <path
         id="path23"
         d="M 2117.07,97.4023 V 78.4375 h -64.91 V 61.2891 h 34.29 V 42.3164 h -34.29 V 21.8945 h 67.11 V 2.92188 h -86.09 V 97.4023 h 83.89"
         style="fill:#9c1b20;fill-opacity:1;fill-rule:nonzero;stroke:none"
         transform="matrix(0.13333333,0,0,-0.13333333,0,100.61333)" />
      <path
         id="path24"
         d="m 2372.08,63.1055 h -0.35 V 2.92188 h -18.98 V 97.4023 h 18.98 l 33.2,-47.4414 33.18,47.4414 h 18.97 V 2.92188 h -18.97 V 63.1055 h -0.36 l -32.82,-47.4219 -32.85,47.4219"
         style="fill:#9c1b20;fill-opacity:1;fill-rule:nonzero;stroke:none"
         transform="matrix(0.13333333,0,0,-0.13333333,0,100.61333)" />
      <path
         id="path25"
         d="m 2636.04,50.1641 c 0,16.4179 -15.52,31.1953 -39.03,31.1953 -23.53,0 -39.04,-14.9531 -39.04,-31.1953 0,-16.4219 15.51,-31.1993 39.04,-31.1993 23.51,0 39.03,14.7774 39.03,31.1993 z m -97.03,0 c 0,26.4492 20.77,50.1599 58,50.1599 37.4,0 57.99,-23.5271 57.99,-50.1599 C 2655,23.7109 2634.03,0 2597.01,0 c -37.03,0 -58,23.7109 -58,50.1641"
         style="fill:#9c1b20;fill-opacity:1;fill-rule:nonzero;stroke:none"
         transform="matrix(0.13333333,0,0,-0.13333333,0,100.61333)" />
      <path
         id="path26"
         d="M 2752.27,97.4023 V 39.9531 c 0,-11.3086 2.89,-20.9883 26.63,-20.9883 25.16,0 26.63,10.7618 26.63,20.9883 v 57.4492 h 18.94 V 39.9531 C 2824.47,20.0586 2814.99,0 2778.69,0 c -32.82,0 -45.41,17.5117 -45.41,39.9531 v 57.4492 h 18.99"
         style="fill:#9c1b20;fill-opacity:1;fill-rule:nonzero;stroke:none"
         transform="matrix(0.13333333,0,0,-0.13333333,0,100.61333)" />
      <path
         id="path27"
         d="M 2951.99,97.4023 V 21.8945 h 54.35 V 2.92188 h -73.32 V 97.4023 h 18.97"
         style="fill:#9c1b20;fill-opacity:1;fill-rule:nonzero;stroke:none"
         transform="matrix(0.13333333,0,0,-0.13333333,0,100.61333)" />
      <path
         id="path28"
         d="m 3123.08,21.8945 h 32.27 c 16.61,0 28.85,9.4727 28.85,28.625 0,22.2539 -14.05,27.918 -28.85,27.918 h -32.27 z m 32.27,75.5078 c 21.72,0 47.79,-10.5859 47.79,-45.7812 0,-31.1797 -19.5,-48.69922 -47.79,-48.69922 H 3104.1 V 97.4023 h 51.25"
         style="fill:#9c1b20;fill-opacity:1;fill-rule:nonzero;stroke:none"
         transform="matrix(0.13333333,0,0,-0.13333333,0,100.61333)" />
      <path
         id="path29"
         d="M 3314.98,97.4023 V 2.92188 h -18.97 V 97.4023 h 18.97"
         style="fill:#9c1b20;fill-opacity:1;fill-rule:nonzero;stroke:none"
         transform="matrix(0.13333333,0,0,-0.13333333,0,100.61333)" />
      <path
         id="path30"
         d="m 3420.24,97.4023 h 18.96 l 51.83,-63.8359 h 0.35 v 63.8359 h 18.98 V 2.92188 h -18.98 l -51.8,63.83592 h -0.38 V 2.92188 h -18.96 V 97.4023"
         style="fill:#9c1b20;fill-opacity:1;fill-rule:nonzero;stroke:none"
         transform="matrix(0.13333333,0,0,-0.13333333,0,100.61333)" />
      <path
         id="path31"
         d="m 3651.75,56.7383 h 42.51 V 16.9648 C 3690.25,12.7656 3676.56,0 3647.19,0 c -34.99,0 -56.15,24.2695 -56.15,50.8789 0,23.9063 18.57,49.4451 56.35,49.4451 25.17,0 39.92,-9.1326 45.05,-12.0349 l -11.12,-18.7852 c -6.04,3.9922 -16.96,11.8555 -34.66,11.8555 -22.26,0 -36.67,-13.7031 -36.67,-30.4805 0,-17.8711 12.58,-31.9141 37.2,-31.9141 9.67,0 21.17,3.8399 28.09,8.7618 v 11.4922 h -23.53 v 17.5195"
         style="fill:#9c1b20;fill-opacity:1;fill-rule:nonzero;stroke:none"
         transform="matrix(0.13333333,0,0,-0.13333333,0,100.61333)" />
      <path
         id="path32"
         d="m 443.918,125.02 v 95.859 C 309.426,265.801 308.621,370.93 275.676,466.414 242.699,561.906 121.074,613.07 121.074,613.07 V 750.836 H 0 V 0.917969 H 535.348 C 526.754,71.7109 489.098,125.02 443.918,125.02"
         style="fill:#9c1b20;fill-opacity:1;fill-rule:nonzero;stroke:none"
         transform="matrix(0.13333333,0,0,-0.13333333,0,100.61333)" />
      <path
         id="path33"
         d="m 212.77,750.836 c 0,0 0,-56.07 0,-87.141 42.203,-22.746 123.515,-75.824 152.285,-159.168 l 17.078,-56.972 C 403.469,370.43 418.867,314.688 506.625,285.391 l 29,-9.696 c 0,0 0,-64.687 0,-93.105 C 585.438,147.5 621.293,80.4023 628.754,0.917969 h 121.18 V 750.836 H 212.77"
         style="fill:#14151b;fill-opacity:1;fill-rule:nonzero;stroke:none"
         transform="matrix(0.13333333,0,0,-0.13333333,0,100.61333)" />
    </g>
  </g>
</svg>
